<svg xmlns="http://www.w3.org/2000/svg" width="48" height="48" viewBox="0 0 48 48"><rect width="100%" height="100%" fill="transparent"/><path fill="#FFC107" d="M39.989,12c0,0,0.999,23-15.816,32C7.012,35,8.011,12,8.011,12C16.006,12,24,4,24,4S30.995,12,39.989,12z"/><path fill="#5D4037" d="M22,32.142c0-0.269,0.047-0.515,0.143-0.746c0.094-0.228,0.229-0.426,0.403-0.592c0.171-0.168,0.382-0.299,0.624-0.393c0.244-0.092,0.518-0.141,0.824-0.141c0.306,0,0.582,0.049,0.828,0.141c0.25,0.094,0.461,0.225,0.632,0.393c0.175,0.166,0.31,0.364,0.403,0.592C25.953,31.627,26,31.873,26,32.142c0,0.27-0.047,0.516-0.143,0.74c-0.094,0.225-0.229,0.419-0.403,0.588c-0.171,0.166-0.382,0.296-0.632,0.392C24.576,33.954,24.3,34,23.994,34c-0.307,0-0.58-0.046-0.824-0.139c-0.242-0.096-0.453-0.226-0.624-0.392c-0.175-0.169-0.31-0.363-0.403-0.588C22.047,32.657,22,32.411,22,32.142 M25.48,28h-2.973l-0.421-12H25.9L25.48,28z"/></svg>